<svg xmlns="http://www.w3.org/2000/svg" width="591" height="159" version="1"><g fill-rule="evenodd"><path fill="#404137" d="M299 0h-2l-1 2v61l-1 1h-1l-10-5h-5l-40 23-2 4v45l2 5 40 22h5l39-22c2-1 3-3 3-5V18c0-2-1-4-3-5L300 0h-1zM44 57l-2 1L2 80l-2 5v61l1 2h3l23-14c2-1 3-2 3-4v-28c0-2 0-4 2-4l10-6 2-1 3 1 10 6 2 4v28c0 2 1 3 3 4l23 14h2l2-2V85c0-2-1-4-3-5L47 58l-2-1h-1zm356 1h-3l-39 23c-2 1-3 2-3 4v46c0 2 1 3 3 4l39 22h5l23-13 2-2-2-2-39-23-2-2v-14l2-2 12-7h2l13 7 1 2v11a2 2 0 0 0 4 2l23-14c2-1 3-2 3-4V85c0-2-1-3-3-4l-39-23h-2zM281 92h1l13 8 1 1v15l-1 1-13 8h-1l-14-8v-16-1l14-8z"/><path fill="#83cd29" d="M518 56l-4 1-37 22c-3 1-4 4-4 7v43c0 3 1 5 4 7l10 5c4 3 6 3 8 3 7 0 11-5 11-12V89l-1-1h-5l-1 1v43c0 3-3 6-9 4l-10-6V86v-1l37-22h2l37 22v45l-37 21h-2l-9-5h-1l-6 2s-1 1 1 2l12 7a8 8 0 0 0 8 0l37-21c3-2 4-4 4-7V86c0-3-1-6-4-7l-37-22-4-1zm-355 1l-2 1-40 23c-2 1-2 2-2 4v46c0 1 0 3 2 4l40 23h4l40-23 2-4V85l-2-4-40-23-2-1zm410 1v1h4v8h1v-8h3v-1h-8zm9 0v9h1v-6-1-1l3 8h1l3-8v8h1v-9h-2l-2 7-3-7h-2zm-54 29c-11 0-17 5-17 12 0 8 6 11 17 12 12 1 13 3 13 5 0 4-4 6-11 6-10 0-13-2-13-7l-1-1h-5l-1 1c0 6 3 13 20 13 11 0 18-4 18-12s-5-10-17-12c-11-2-12-2-12-5 0-2 0-5 9-5 8 0 11 1 12 7h6l1-1c-1-9-7-13-19-13zM399 98l-8 5v10l8 4h1l7-4 1-1v-9h-1l-7-5h-1z"/></g></svg>